<svg width="162" height="31" viewBox="0 0 162 31" fill="none" xmlns="http://www.w3.org/2000/svg">
<path d="M8.664 30V8.416H0.152V3.4H23.332V8.416H14.82V30H8.664ZM37.1572 30V26.01L36.7772 25.136V17.992C36.7772 16.7253 36.3845 15.7373 35.5992 15.028C34.8392 14.3187 33.6612 13.964 32.0652 13.964C30.9758 13.964 29.8992 14.1413 28.8352 14.496C27.7965 14.8253 26.9098 15.2813 26.1752 15.864L24.0472 11.722C25.1618 10.9367 26.5045 10.3287 28.0752 9.898C29.6458 9.46733 31.2418 9.252 32.8632 9.252C35.9792 9.252 38.3985 9.98667 40.1212 11.456C41.8438 12.9253 42.7052 15.218 42.7052 18.334V30H37.1572ZM30.9252 30.304C29.3292 30.304 27.9612 30.038 26.8212 29.506C25.6812 28.9487 24.8072 28.2013 24.1992 27.264C23.5912 26.3267 23.2872 25.2753 23.2872 24.11C23.2872 22.894 23.5785 21.83 24.1612 20.918C24.7692 20.006 25.7192 19.2967 27.0112 18.79C28.3032 18.258 29.9878 17.992 32.0652 17.992H37.4992V21.45H32.7112C31.3178 21.45 30.3552 21.678 29.8232 22.134C29.3165 22.59 29.0632 23.16 29.0632 23.844C29.0632 24.604 29.3545 25.212 29.9372 25.668C30.5452 26.0987 31.3685 26.314 32.4072 26.314C33.3952 26.314 34.2818 26.086 35.0672 25.63C35.8525 25.1487 36.4225 24.452 36.7772 23.54L37.6892 26.276C37.2585 27.5933 36.4732 28.594 35.3332 29.278C34.1932 29.962 32.7238 30.304 30.9252 30.304ZM54.3783 30.304C52.6303 30.304 50.9456 30.1013 49.3243 29.696C47.7283 29.2653 46.4616 28.7333 45.5243 28.1L47.5003 23.844C48.4376 24.4267 49.5396 24.908 50.8063 25.288C52.0983 25.6427 53.365 25.82 54.6063 25.82C55.9743 25.82 56.937 25.6553 57.4943 25.326C58.077 24.9967 58.3683 24.5407 58.3683 23.958C58.3683 23.4767 58.1403 23.122 57.6843 22.894C57.2536 22.6407 56.671 22.4507 55.9363 22.324C55.2016 22.1973 54.391 22.0707 53.5043 21.944C52.643 21.8173 51.769 21.6527 50.8823 21.45C49.9956 21.222 49.185 20.8927 48.4503 20.462C47.7156 20.0313 47.1203 19.4487 46.6643 18.714C46.2336 17.9793 46.0183 17.0293 46.0183 15.864C46.0183 14.572 46.3856 13.432 47.1203 12.444C47.8803 11.456 48.9696 10.6833 50.3883 10.126C51.807 9.54333 53.5043 9.252 55.4803 9.252C56.8736 9.252 58.2923 9.404 59.7363 9.708C61.1803 10.012 62.3836 10.4553 63.3463 11.038L61.3703 15.256C60.3823 14.6733 59.3816 14.2807 58.3683 14.078C57.3803 13.85 56.4176 13.736 55.4803 13.736C54.163 13.736 53.2003 13.9133 52.5923 14.268C51.9843 14.6227 51.6803 15.0787 51.6803 15.636C51.6803 16.1427 51.8956 16.5227 52.3263 16.776C52.7823 17.0293 53.3776 17.232 54.1123 17.384C54.847 17.536 55.645 17.6753 56.5063 17.802C57.393 17.9033 58.2796 18.068 59.1663 18.296C60.053 18.524 60.851 18.8533 61.5603 19.284C62.295 19.6893 62.8903 20.2593 63.3463 20.994C63.8023 21.7033 64.0303 22.6407 64.0303 23.806C64.0303 25.0727 63.6503 26.2 62.8903 27.188C62.1303 28.1507 61.0283 28.9107 59.5843 29.468C58.1656 30.0253 56.4303 30.304 54.3783 30.304ZM72.0198 25.82L72.1718 18.6L81.7098 9.556H88.7778L79.6198 18.866L76.5418 21.374L72.0198 25.82ZM67.1178 30V1.804H73.0458V30H67.1178ZM82.3558 30L75.4398 21.412L79.1638 16.814L89.5378 30H82.3558ZM89.7453 30V26.428L101.829 12.14L102.855 14.116H90.0113V9.556H107.643V13.128L95.5593 27.416L94.4953 25.44H107.985V30H89.7453ZM111.214 30V9.556H117.142V30H111.214ZM114.178 6.706C113.089 6.706 112.202 6.38933 111.518 5.756C110.834 5.12267 110.492 4.33733 110.492 3.4C110.492 2.46266 110.834 1.67733 111.518 1.044C112.202 0.410665 113.089 0.0939977 114.178 0.0939977C115.267 0.0939977 116.154 0.397998 116.838 1.006C117.522 1.58867 117.864 2.34867 117.864 3.286C117.864 4.274 117.522 5.09733 116.838 5.756C116.179 6.38933 115.293 6.706 114.178 6.706ZM122.074 30V1.804H128.002V30H122.074ZM132.933 30V1.804H138.861V30H132.933ZM156.333 30V26.01L155.953 25.136V17.992C155.953 16.7253 155.561 15.7373 154.775 15.028C154.015 14.3187 152.837 13.964 151.241 13.964C150.152 13.964 149.075 14.1413 148.011 14.496C146.973 14.8253 146.086 15.2813 145.351 15.864L143.223 11.722C144.338 10.9367 145.681 10.3287 147.251 9.898C148.822 9.46733 150.418 9.252 152.039 9.252C155.155 9.252 157.575 9.98667 159.297 11.456C161.02 12.9253 161.881 15.218 161.881 18.334V30H156.333ZM150.101 30.304C148.505 30.304 147.137 30.038 145.997 29.506C144.857 28.9487 143.983 28.2013 143.375 27.264C142.767 26.3267 142.463 25.2753 142.463 24.11C142.463 22.894 142.755 21.83 143.337 20.918C143.945 20.006 144.895 19.2967 146.187 18.79C147.479 18.258 149.164 17.992 151.241 17.992H156.675V21.45H151.887C150.494 21.45 149.531 21.678 148.999 22.134C148.493 22.59 148.239 23.16 148.239 23.844C148.239 24.604 148.531 25.212 149.113 25.668C149.721 26.0987 150.545 26.314 151.583 26.314C152.571 26.314 153.458 26.086 154.243 25.63C155.029 25.1487 155.599 24.452 155.953 23.54L156.865 26.276C156.435 27.5933 155.649 28.594 154.509 29.278C153.369 29.962 151.9 30.304 150.101 30.304Z" fill="#DAD4D4"/>
</svg>
